# xmcd CD database file
# Copyright (C) 1993-1998 Ti Kan
# 
# Track frame offsets:
#     182
#     19182
#     40107
#     58860
#     78450
#     96455
#     113560
#     136207
#     155010
#     171402
#     183665
#     202210
#     224702
#     241012
#     267312
#     281652
#     295975
# 
# Disc length: 4439 seconds
# 
# Revision: 1
# Processed by: cddbd v1.4b41PL1 Copyright (c) Steve Scherf et al.
# Submitted via: DiscPlay 4.0.4
# 
DISCID=0c115511
DTITLE=Various Artist - Skyranch Audio Sampler 1994
DYEAR=1900
DGENRE=
TTITLE0=You Got Away With Love--Percy Sledge
TTITLE1=Rosa--Lenny McDaniels
TTITLE2=Knderwars--Carla Olson
TTITLE3=Congo Square--Chris Daniels and The Kings
TTITLE4=Bring Some Water--Loup Garou
TTITLE5=Cold and Groke--Bob Brozman
TTITLE6=Daddy Rollin' In Your Arms--Ben Vaugn
TTITLE7=Play Tha Blues--John Juke Logan
TTITLE8=Lovey Dovey--Roland Stone
TTITLE9=Ruler Of My Heart--Willy Deville
TTITLE10=Standing In The Grits Line--Don Covay
TTITLE11=Pray--Marva Wright
TTITLE12=You Can Watch Me--Greg Brown
TTITLE13=Good Faith--Christine Lakeland
TTITLE14=The Way Heaven Feels--Colin Linden
TTITLE15=Fredie Roulette--Holyday For Strings
TTITLE16=Psychedelic Guitar Circus
EXTD=
EXTT0=
EXTT1=
EXTT2=
EXTT3=
EXTT4=
EXTT5=
EXTT6=
EXTT7=
EXTT8=
EXTT9=
EXTT10=
EXTT11=
EXTT12=
EXTT13=
EXTT14=
EXTT15=
EXTT16=
PLAYORDER=
